<svg width="177" height="22" viewBox="0 0 177 22" fill="none" xmlns="http://www.w3.org/2000/svg">
<path d="M13.4164 9.26056V6.52643C13.4164 2.71046 11.3867 0.5271 7.83468 0.5271C4.28269 0.5271 2.25298 2.71046 2.25298 6.52643V7.19521C2.25298 7.37224 2.39506 7.50993 2.57773 7.50993C2.76041 7.50993 2.90249 7.37224 2.90249 7.19521V6.52643C2.90249 4.5201 3.55199 1.15654 7.83468 1.15654C12.1174 1.15654 12.7669 4.5201 12.7669 6.52643V9.22122H1.94852C0.872777 9.22122 0 10.0867 0 11.1292L0.405942 19.3709C0.405942 20.4134 1.27872 21.2789 2.35447 21.2789H12.6451C13.7208 21.2789 14.5936 20.4331 14.5936 19.3709L14.9996 11.1489C15.0199 10.2047 14.3298 9.43759 13.4164 9.26056ZM13.9644 19.3512C13.9644 20.079 13.3758 20.6495 12.6654 20.6495H2.37476C1.64407 20.6495 1.07575 20.079 1.07575 19.3709L0.669808 11.1292C0.669808 10.4211 1.25842 9.85066 1.98912 9.85066H13.0916C13.802 9.85066 14.3906 10.4211 14.4109 11.1292L13.9644 19.3512Z" fill="white"/>
<path d="M3.49098 15.6925C4.60732 16.676 6.1499 17.4628 7.67219 17.4038C9.17417 17.3448 10.6965 16.5777 11.8534 15.6925C12.1173 15.4958 11.7519 15.1615 11.488 15.3385C10.4326 16.145 9.01179 16.8531 7.65189 16.9121C6.27168 16.9711 4.83059 16.2236 3.83603 15.3385C3.61277 15.1418 3.24742 15.4762 3.49098 15.6925Z" fill="#17A3DC"/>
<path d="M28.8023 15.9621C28.1067 15.7428 27.5691 15.3982 27.1897 15.0223C27.0632 14.897 27 14.7717 27 14.5838C27 14.4585 27.0316 14.3645 27.0949 14.3018C27.1581 14.2079 27.2213 14.1765 27.3162 14.1765C27.411 14.1765 27.5375 14.2392 27.664 14.3332C28.6126 15.1163 29.7192 15.4922 30.984 15.4922C31.9009 15.4922 32.5965 15.3043 33.1024 14.9597C33.6083 14.5838 33.8613 14.0826 33.8613 13.3934C33.8613 13.0175 33.7348 12.7042 33.5135 12.4536C33.2605 12.203 32.976 12.0151 32.5965 11.8898C32.2171 11.7645 31.7112 11.6078 31.1105 11.4825C30.2884 11.2946 29.6244 11.1066 29.1185 10.9187C28.6126 10.7307 28.1699 10.4488 27.8221 10.0415C27.4743 9.63431 27.2846 9.1331 27.2846 8.47527C27.2846 7.88008 27.4427 7.37887 27.7589 6.90899C28.075 6.4391 28.5177 6.09453 29.0868 5.84393C29.656 5.59332 30.32 5.46802 31.0788 5.46802C31.7744 5.46802 32.4385 5.59331 33.0392 5.81259C33.64 6.03187 34.1775 6.34514 34.5569 6.7837C34.6834 6.909 34.7466 7.06562 34.7466 7.22224C34.7466 7.34755 34.715 7.44153 34.6518 7.50418C34.5885 7.59816 34.5253 7.62947 34.4304 7.62947C34.3356 7.62947 34.2091 7.56682 34.0826 7.47284C33.5451 7.03429 33.0392 6.72104 32.5965 6.56441C32.1539 6.40779 31.648 6.31381 31.0472 6.31381C30.1619 6.31381 29.4347 6.50176 28.9288 6.87767C28.4229 7.25358 28.1699 7.7861 28.1699 8.47527C28.1699 8.8825 28.2964 9.22708 28.5177 9.47769C28.739 9.72829 29.0236 9.94758 29.403 10.0729C29.7508 10.2295 30.2251 10.3548 30.7943 10.5114L31.1737 10.6054C31.9958 10.7934 32.6282 10.9813 33.1024 11.1693C33.5767 11.3259 33.9878 11.6078 34.304 11.9524C34.6202 12.297 34.8099 12.7982 34.8099 13.3934C34.8099 13.9572 34.6518 14.4585 34.3356 14.9284C34.0194 15.3982 33.5767 15.7115 32.976 15.9621C32.4068 16.2127 31.7428 16.338 30.984 16.338C30.1935 16.3067 29.4979 16.1814 28.8023 15.9621Z" fill="white"/>
<path d="M49.7024 5.68741C49.7972 5.78139 49.8288 5.90668 49.8288 6.03199V15.8056C49.8288 15.9309 49.7972 16.0562 49.7024 16.1502C49.6075 16.2441 49.5127 16.2755 49.3546 16.2755C49.2281 16.2755 49.1016 16.2441 49.0384 16.1502C48.9751 16.0562 48.9435 15.9622 48.9435 15.8056V7.47296L45.3706 14.3333C45.2441 14.5525 45.086 14.6778 44.8647 14.6778C44.6433 14.6778 44.4852 14.5525 44.3588 14.3333L40.7542 7.53561V15.8056C40.7542 15.9622 40.7226 16.0875 40.6594 16.1502C40.5961 16.2441 40.4697 16.2755 40.3432 16.2755C40.1851 16.2755 40.0902 16.2441 39.9954 16.1502C39.9321 16.0562 39.8689 15.9622 39.8689 15.8056V6.03199C39.8689 5.90668 39.9005 5.78139 39.9954 5.68741C40.0902 5.59344 40.1851 5.5621 40.3432 5.5621C40.5329 5.5621 40.691 5.6874 40.7858 5.90668L44.8647 13.6441L48.8803 5.90668C49.0068 5.6874 49.1648 5.5621 49.3229 5.5621C49.5127 5.53078 49.6391 5.59344 49.7024 5.68741Z" fill="white"/>
<path d="M55.7415 16.1187C55.6466 16.0248 55.615 15.8994 55.615 15.7741V6.0319C55.615 5.90659 55.6466 5.7813 55.7415 5.68732C55.8363 5.59334 55.9312 5.56201 56.0893 5.56201C56.2157 5.56201 56.3422 5.59334 56.4371 5.68732C56.5319 5.7813 56.5636 5.90659 56.5636 6.0319V15.8055C56.5636 15.9308 56.5319 16.0561 56.4371 16.1501C56.3422 16.244 56.2474 16.2754 56.0893 16.2754C55.9628 16.2754 55.8363 16.2127 55.7415 16.1187Z" fill="white"/>
<path d="M62.4765 16.0561C62.3816 15.9621 62.3184 15.8681 62.3184 15.7428V6.0319C62.3184 5.90659 62.35 5.7813 62.4448 5.68732C62.5397 5.59334 62.6345 5.56201 62.7926 5.56201C62.9507 5.56201 63.0456 5.59334 63.1404 5.68732C63.2353 5.7813 63.2669 5.87527 63.2669 6.0319V15.3983H68.4524C68.5789 15.3983 68.6738 15.4296 68.7686 15.4922C68.8318 15.5549 68.8951 15.6489 68.8951 15.8055C68.8951 15.9308 68.8635 16.0248 68.7686 16.1187C68.7054 16.1814 68.5789 16.2127 68.4524 16.2127H62.8243C62.6978 16.1814 62.5713 16.1501 62.4765 16.0561Z" fill="white"/>
<path d="M73.5746 16.056C73.4797 15.962 73.4165 15.8681 73.4165 15.7114V6.06315C73.4165 5.93784 73.4797 5.81255 73.5746 5.71857C73.6695 5.62459 73.7959 5.59326 73.9224 5.59326H79.6771C79.8035 5.59326 79.8984 5.6246 79.9932 5.68725C80.0565 5.7499 80.1197 5.84388 80.1197 6.00051C80.1197 6.12581 80.0881 6.21978 79.9932 6.28243C79.93 6.34508 79.8035 6.3764 79.6771 6.3764H74.3335V10.4174H79.3609C79.4873 10.4174 79.5822 10.4487 79.6771 10.5114C79.7403 10.574 79.8035 10.668 79.8035 10.8246C79.8035 10.9813 79.7719 11.0439 79.6771 11.1379C79.6138 11.2005 79.4873 11.2319 79.3609 11.2319H74.3335V15.3982H79.6771C79.8035 15.3982 79.8984 15.4295 79.9932 15.4922C80.0565 15.5548 80.1197 15.6488 80.1197 15.7741C80.1197 15.8994 80.0881 15.9934 79.9932 16.0873C79.93 16.15 79.8035 16.1813 79.6771 16.1813H73.9224C73.7959 16.1813 73.6695 16.15 73.5746 16.056Z" fill="white"/>
<path d="M92.1983 16.1187C92.1034 16.0248 92.0718 15.8994 92.0718 15.7741V6.0319C92.0718 5.90659 92.1034 5.7813 92.1983 5.68732C92.2931 5.59334 92.388 5.56201 92.5461 5.56201C92.6725 5.56201 92.799 5.59334 92.8939 5.68732C92.9887 5.7813 93.0203 5.90659 93.0203 6.0319V15.8055C93.0203 15.9308 92.9887 16.0561 92.8939 16.1501C92.799 16.244 92.7042 16.2754 92.5461 16.2754C92.4196 16.2754 92.2931 16.2127 92.1983 16.1187Z" fill="white"/>
<path d="M98.933 16.056C98.8381 15.962 98.7749 15.8681 98.7749 15.7114V6.06315C98.7749 5.93784 98.8381 5.81255 98.933 5.71857C99.0279 5.62459 99.1543 5.59326 99.2808 5.59326H102.221C103.897 5.59326 105.225 6.06315 106.142 6.9716C107.059 7.88004 107.533 9.19571 107.533 10.8873C107.533 12.5789 107.059 13.8946 106.142 14.803C105.225 15.7114 103.929 16.1813 102.221 16.1813H99.2808C99.1543 16.1813 99.0279 16.15 98.933 16.056ZM102.19 15.3668C105.099 15.3668 106.553 13.8632 106.553 10.8873C106.553 7.91136 105.099 6.40774 102.19 6.40774H99.7235V15.3668H102.19V15.3668Z" fill="white"/>
<path d="M113.035 16.056C112.94 15.962 112.877 15.8681 112.877 15.7114V6.06315C112.877 5.93784 112.94 5.81255 113.035 5.71857C113.13 5.62459 113.256 5.59326 113.383 5.59326H119.138C119.264 5.59326 119.359 5.6246 119.454 5.68725C119.549 5.7499 119.58 5.84388 119.58 6.00051C119.58 6.12581 119.549 6.21978 119.454 6.28243C119.359 6.34508 119.264 6.3764 119.138 6.3764H113.794V10.4174H118.821C118.948 10.4174 119.043 10.4487 119.138 10.5114C119.201 10.574 119.264 10.668 119.264 10.8246C119.264 10.9813 119.232 11.0439 119.138 11.1379C119.074 11.2005 118.948 11.2319 118.821 11.2319H113.794V15.3982H119.138C119.264 15.3982 119.359 15.4295 119.454 15.4922C119.517 15.5548 119.58 15.6488 119.58 15.7741C119.58 15.8994 119.549 15.9934 119.454 16.0873C119.39 16.15 119.264 16.1813 119.138 16.1813H113.383C113.256 16.1813 113.13 16.15 113.035 16.056Z" fill="white"/>
<path d="M132.923 5.65602C132.987 5.74999 133.05 5.84398 133.05 6.00061V15.7742C133.05 15.8995 133.018 16.0248 132.923 16.1188C132.828 16.2128 132.734 16.2441 132.576 16.2441C132.417 16.2441 132.291 16.1814 132.164 16.0248L125.524 7.15964V15.7742C125.524 15.8995 125.493 16.0248 125.398 16.1188C125.303 16.2128 125.208 16.2441 125.082 16.2441C124.924 16.2441 124.829 16.2128 124.734 16.1188C124.671 16.0248 124.639 15.9308 124.639 15.7742V6.03193C124.639 5.90663 124.671 5.78133 124.766 5.68735C124.861 5.59338 124.955 5.56204 125.113 5.56204C125.272 5.56204 125.398 5.6247 125.493 5.78133L132.101 14.6151V6.03193C132.101 5.90663 132.133 5.78133 132.228 5.68735C132.323 5.59338 132.417 5.56204 132.544 5.56204C132.765 5.53072 132.86 5.59337 132.923 5.65602Z" fill="white"/>
<path d="M141.587 16.1187C141.492 16.0247 141.46 15.8994 141.46 15.7741V6.40774H137.982C137.856 6.40774 137.761 6.37642 137.666 6.31377C137.571 6.25111 137.54 6.15714 137.54 6.00051C137.54 5.87521 137.571 5.78123 137.666 5.68725C137.761 5.59328 137.856 5.59326 137.982 5.59326H145.887C146.013 5.59326 146.108 5.62459 146.203 5.71857C146.298 5.81255 146.33 5.90653 146.33 6.00051C146.33 6.09449 146.298 6.21978 146.203 6.28243C146.108 6.34508 146.013 6.40774 145.887 6.40774H142.409V15.7741C142.409 15.8994 142.377 16.0247 142.282 16.1187C142.188 16.2126 142.093 16.244 141.935 16.244C141.776 16.2753 141.682 16.2126 141.587 16.1187Z" fill="white"/>
<path d="M150.914 16.1187C150.819 16.0248 150.788 15.8994 150.788 15.7741V6.0319C150.788 5.90659 150.819 5.7813 150.914 5.68732C151.009 5.59334 151.104 5.56201 151.262 5.56201C151.389 5.56201 151.515 5.59334 151.61 5.68732C151.705 5.7813 151.736 5.90659 151.736 6.0319V15.8055C151.736 15.9308 151.705 16.0561 151.61 16.1501C151.515 16.244 151.42 16.2754 151.262 16.2754C151.136 16.2754 151.009 16.2127 150.914 16.1187Z" fill="white"/>
<path d="M160.274 16.1187C160.179 16.0247 160.147 15.8994 160.147 15.7741V6.40774H156.637C156.511 6.40774 156.416 6.37642 156.321 6.31377C156.226 6.25111 156.195 6.15714 156.195 6.00051C156.195 5.87521 156.226 5.78123 156.321 5.68725C156.416 5.59328 156.511 5.59326 156.637 5.59326H164.542C164.669 5.59326 164.764 5.62459 164.858 5.71857C164.953 5.81255 164.985 5.90653 164.985 6.00051C164.985 6.09449 164.953 6.21978 164.858 6.28243C164.764 6.34508 164.669 6.40774 164.542 6.40774H161.064V15.7741C161.064 15.8994 161.033 16.0247 160.938 16.1187C160.843 16.2126 160.748 16.244 160.59 16.244C160.463 16.2753 160.337 16.2126 160.274 16.1187Z" fill="white"/>
<path d="M176.589 5.56201C176.715 5.56201 176.81 5.59334 176.873 5.68732C176.937 5.7813 177 5.87528 177 6.00058C177 6.12588 176.968 6.21985 176.905 6.2825L173.111 11.1066V15.8055C173.111 15.9308 173.079 16.0561 172.984 16.1501C172.889 16.244 172.795 16.2754 172.636 16.2754C172.51 16.2754 172.384 16.244 172.289 16.1501C172.194 16.0561 172.162 15.9308 172.162 15.8055V11.044L168.4 6.25118C168.336 6.1572 168.305 6.06322 168.305 5.96924C168.305 5.84394 168.336 5.74997 168.431 5.68732C168.526 5.59334 168.621 5.56201 168.716 5.56201C168.842 5.56201 168.969 5.62466 169.064 5.74996L172.668 10.3548L176.273 5.74996C176.336 5.62466 176.462 5.56201 176.589 5.56201Z" fill="white"/>
</svg>
